<mxfile host="Electron" modified="2023-05-26T18:32:57.508Z" agent="Mozilla/5.0 (X11; Linux x86_64) AppleWebKit/537.36 (KHTML, like Gecko) draw.io/21.2.8 Chrome/106.0.5249.199 Electron/21.4.4 Safari/537.36" etag="F2Ip-bC1s-cCeKeaDnNF" version="21.2.8" type="device">
  <diagram name="PÃ¡gina-1" id="dfHO47jalvIyfnMXlgef">
    <mxGraphModel dx="706" dy="831" grid="1" gridSize="10" guides="1" tooltips="1" connect="1" arrows="1" fold="1" page="1" pageScale="1" pageWidth="1169" pageHeight="827" math="0" shadow="0">
      <root>
        <mxCell id="0" />
        <mxCell id="1" parent="0" />
        <mxCell id="yCTxjvJW9u8hMO56CBV1-19" value="&amp;lt;&amp;lt;Cliente&amp;gt;&amp;gt;" style="shape=umlActor;verticalLabelPosition=bottom;verticalAlign=top;html=1;outlineConnect=0;" vertex="1" parent="1">
          <mxGeometry x="100" y="300" width="30" height="60" as="geometry" />
        </mxCell>
        <mxCell id="yCTxjvJW9u8hMO56CBV1-20" value="Gestion Vehiculo" style="shape=umlFrame;whiteSpace=wrap;html=1;pointerEvents=0;" vertex="1" parent="1">
          <mxGeometry x="190" y="180" width="520" height="490" as="geometry" />
        </mxCell>
        <mxCell id="yCTxjvJW9u8hMO56CBV1-21" value="" style="endArrow=open;endFill=1;endSize=12;html=1;rounded=0;entryX=0;entryY=0.5;entryDx=0;entryDy=0;" edge="1" parent="1" target="yCTxjvJW9u8hMO56CBV1-22">
          <mxGeometry width="160" relative="1" as="geometry">
            <mxPoint x="140" y="340" as="sourcePoint" />
            <mxPoint x="230" y="335" as="targetPoint" />
          </mxGeometry>
        </mxCell>
        <mxCell id="yCTxjvJW9u8hMO56CBV1-22" value="Borrar Vehiculo" style="ellipse;whiteSpace=wrap;html=1;" vertex="1" parent="1">
          <mxGeometry x="270" y="500" width="140" height="70" as="geometry" />
        </mxCell>
        <mxCell id="yCTxjvJW9u8hMO56CBV1-23" value="Buscar Vehiculo" style="ellipse;whiteSpace=wrap;html=1;" vertex="1" parent="1">
          <mxGeometry x="525" y="424" width="140" height="70" as="geometry" />
        </mxCell>
        <mxCell id="yCTxjvJW9u8hMO56CBV1-24" value="" style="endArrow=open;endFill=1;endSize=12;html=1;rounded=0;exitX=0.929;exitY=0.286;exitDx=0;exitDy=0;exitPerimeter=0;" edge="1" parent="1" source="yCTxjvJW9u8hMO56CBV1-22" target="yCTxjvJW9u8hMO56CBV1-23">
          <mxGeometry width="160" relative="1" as="geometry">
            <mxPoint x="340" y="300" as="sourcePoint" />
            <mxPoint x="500" y="300" as="targetPoint" />
          </mxGeometry>
        </mxCell>
        <mxCell id="yCTxjvJW9u8hMO56CBV1-25" value="&amp;lt;&amp;lt;includes&amp;gt;&amp;gt;" style="text;html=1;strokeColor=none;fillColor=none;align=center;verticalAlign=middle;whiteSpace=wrap;rounded=0;" vertex="1" parent="1">
          <mxGeometry x="410" y="470" width="60" height="30" as="geometry" />
        </mxCell>
        <mxCell id="yCTxjvJW9u8hMO56CBV1-26" value="" style="endArrow=open;endFill=1;endSize=12;html=1;rounded=0;entryX=0;entryY=0.5;entryDx=0;entryDy=0;" edge="1" parent="1" target="yCTxjvJW9u8hMO56CBV1-27">
          <mxGeometry width="160" relative="1" as="geometry">
            <mxPoint x="140" y="340" as="sourcePoint" />
            <mxPoint x="240" y="230.5" as="targetPoint" />
          </mxGeometry>
        </mxCell>
        <mxCell id="yCTxjvJW9u8hMO56CBV1-27" value="Editar Vehiculo" style="ellipse;whiteSpace=wrap;html=1;" vertex="1" parent="1">
          <mxGeometry x="270" y="390" width="140" height="70" as="geometry" />
        </mxCell>
        <mxCell id="yCTxjvJW9u8hMO56CBV1-28" value="" style="endArrow=open;endFill=1;endSize=12;html=1;rounded=0;exitX=0.929;exitY=0.286;exitDx=0;exitDy=0;exitPerimeter=0;" edge="1" parent="1" target="yCTxjvJW9u8hMO56CBV1-23">
          <mxGeometry width="160" relative="1" as="geometry">
            <mxPoint x="410" y="430" as="sourcePoint" />
            <mxPoint x="546" y="388" as="targetPoint" />
          </mxGeometry>
        </mxCell>
        <mxCell id="yCTxjvJW9u8hMO56CBV1-29" value="&amp;lt;&amp;lt;includes&amp;gt;&amp;gt;" style="text;html=1;strokeColor=none;fillColor=none;align=center;verticalAlign=middle;whiteSpace=wrap;rounded=0;" vertex="1" parent="1">
          <mxGeometry x="440" y="409" width="60" height="30" as="geometry" />
        </mxCell>
        <mxCell id="yCTxjvJW9u8hMO56CBV1-30" value="Validar Vehiculo" style="ellipse;whiteSpace=wrap;html=1;" vertex="1" parent="1">
          <mxGeometry x="525" y="310" width="140" height="70" as="geometry" />
        </mxCell>
        <mxCell id="yCTxjvJW9u8hMO56CBV1-31" value="&amp;lt;&amp;lt;includes&amp;gt;&amp;gt;" style="text;html=1;strokeColor=none;fillColor=none;align=center;verticalAlign=middle;whiteSpace=wrap;rounded=0;" vertex="1" parent="1">
          <mxGeometry x="420" y="360" width="60" height="30" as="geometry" />
        </mxCell>
        <mxCell id="yCTxjvJW9u8hMO56CBV1-32" value="&amp;lt;&amp;lt;includes&amp;gt;&amp;gt;" style="text;html=1;strokeColor=none;fillColor=none;align=center;verticalAlign=middle;whiteSpace=wrap;rounded=0;" vertex="1" parent="1">
          <mxGeometry x="450" y="280" width="60" height="30" as="geometry" />
        </mxCell>
        <mxCell id="yCTxjvJW9u8hMO56CBV1-33" value="" style="endArrow=open;endFill=1;endSize=12;html=1;rounded=0;exitX=0.95;exitY=0.3;exitDx=0;exitDy=0;exitPerimeter=0;entryX=0.071;entryY=0.786;entryDx=0;entryDy=0;entryPerimeter=0;" edge="1" parent="1" source="yCTxjvJW9u8hMO56CBV1-27" target="yCTxjvJW9u8hMO56CBV1-30">
          <mxGeometry width="160" relative="1" as="geometry">
            <mxPoint x="407" y="395" as="sourcePoint" />
            <mxPoint x="525" y="414" as="targetPoint" />
          </mxGeometry>
        </mxCell>
        <mxCell id="yCTxjvJW9u8hMO56CBV1-34" value="Crear Vehiculo" style="ellipse;whiteSpace=wrap;html=1;" vertex="1" parent="1">
          <mxGeometry x="262" y="240" width="140" height="70" as="geometry" />
        </mxCell>
        <mxCell id="yCTxjvJW9u8hMO56CBV1-35" value="" style="endArrow=open;endFill=1;endSize=12;html=1;rounded=0;exitX=0.95;exitY=0.3;exitDx=0;exitDy=0;exitPerimeter=0;entryX=0.071;entryY=0.786;entryDx=0;entryDy=0;entryPerimeter=0;" edge="1" parent="1" target="yCTxjvJW9u8hMO56CBV1-34">
          <mxGeometry width="160" relative="1" as="geometry">
            <mxPoint x="140" y="341" as="sourcePoint" />
            <mxPoint x="262" y="344" as="targetPoint" />
          </mxGeometry>
        </mxCell>
        <mxCell id="yCTxjvJW9u8hMO56CBV1-36" value="" style="endArrow=open;endFill=1;endSize=12;html=1;rounded=0;exitX=0.929;exitY=0.286;exitDx=0;exitDy=0;exitPerimeter=0;entryX=0.036;entryY=0.286;entryDx=0;entryDy=0;entryPerimeter=0;" edge="1" parent="1" target="yCTxjvJW9u8hMO56CBV1-30">
          <mxGeometry width="160" relative="1" as="geometry">
            <mxPoint x="392" y="293" as="sourcePoint" />
            <mxPoint x="510" y="312" as="targetPoint" />
          </mxGeometry>
        </mxCell>
      </root>
    </mxGraphModel>
  </diagram>
</mxfile>
